Format                                   : MPEG-4
Format profile                           : Base Media
Codec ID                                 : isom
File size                                : 198 MiB
Duration                                 : 29mn 44s
Overall bit rate mode                    : Variable
Overall bit rate                         : 929 Kbps

Video
ID                                       : 1
Format                                   : AVC
Format/Info                              : Advanced Video Codec
Format profile                           : High@L3.1
Format settings, CABAC                   : Yes
Format settings, ReFrames                : 4 frames
Codec ID                                 : avc1
Codec ID/Info                            : Advanced Video Coding
Duration                                 : 29mn 44s
Bit rate mode                            : Variable
Bit rate                                 : 868 Kbps
Width                                    : 880 pixels
Height                                   : 496 pixels
Display aspect ratio                     : 16:9
Frame rate mode                          : Constant
Frame rate                               : 29.970 fps
Color space                              : YUV
Chroma subsampling                       : 4:2:0
Bit depth                                : 8 bits
Scan type                                : Progressive
Bits/(Pixel*Frame)                       : 0.066
Stream size                              : 186 MiB (94%)

Audio
ID                                       : 2
Format                                   : AAC
Format/Info                              : Advanced Audio Codec
Format profile                           : LC
Codec ID                                 : 40
Duration                                 : 29mn 44s
Bit rate mode                            : Variable
Bit rate                                 : 50.2 Kbps
Channel(s)                               : 2 channels
Channel positions                        : Front: L R
Sampling rate                            : 44.1 KHz
Compression mode                         : Lossy
Stream size                              : 10.7 MiB (5%)
Language                                 : English

SCREENSHOT..... 
http://www.pixsor.com/share-EEC2_5030A778.html
